<?xml version="1.0" encoding="UTF-8"?>
<svg width="15px" height="15px" viewBox="0 0 15 15" version="1.1" xmlns="http://www.w3.org/2000/svg" xmlns:xlink="http://www.w3.org/1999/xlink">
    <title>20CD9D31-92A2-4E4E-8543-006AC3AB19C4@2x</title>
    <defs>
        <path d="M8.41231724,1.01071371 L14.8656865,12.5357141 C15.1487822,13.0412915 14.9697765,13.6813966 14.4658663,13.9654289 C14.3093368,14.0536577 14.1328161,14.1 13.9532762,14.1 L1.04653768,14.1 C0.468550878,14.1 0,13.629899 0,13.05 C0,12.8698662 0.0461894647,12.6927615 0.134127382,12.5357141 L6.58749665,1.01071371 C6.87059232,0.505136298 7.5085867,0.325538464 8.01249699,0.609570715 C8.17993088,0.703945892 8.31825326,0.842725892 8.41231724,1.01071371 Z M7.49516667,10.7566667 C7.27933333,10.7566667 7.096,10.8316667 6.94933333,10.98 C6.79933333,11.1283333 6.726,11.31 6.726,11.5216667 C6.726,11.7641667 6.80266667,11.9558333 6.95766667,12.0908333 C7.1135,12.2258333 7.296,12.2925 7.50516667,12.2925 C7.71016667,12.2925 7.88933333,12.2258333 8.04266667,12.0883333 C8.19766667,11.9508333 8.27433333,11.7625 8.27433333,11.5216667 C8.27433333,11.31 8.19933333,11.1283333 8.04516667,10.98 C7.89433333,10.8316667 7.71016667,10.7566667 7.49516667,10.7566667 M7.36922445,1.45153018 C7.40980048,1.37930484 7.50124407,1.353648 7.57346941,1.39422404 C7.59746767,1.40770621 7.61729339,1.42753192 7.63077555,1.45153018 L7.63077555,1.45153018 L14.1054949,12.9765306 C14.1460709,13.0487559 14.1204141,13.1401995 14.0481887,13.1807756 C14.0257534,13.1933797 14.0004527,13.2 13.9747193,13.2 L13.9747193,13.2 L1.02528067,13.2 C0.942437957,13.2 0.87528067,13.1328427 0.87528067,13.05 C0.87528067,13.0242666 0.881900995,12.9989659 0.894505116,12.9765306 L0.894505116,12.9765306 Z M7.49658333,4.67433333 C7.30408333,4.67433333 7.14075,4.74183333 7.00908333,4.87516667 C6.87575,5.00683333 6.81075,5.1685 6.81075,5.35683333 L7.00658333,9.201 C7.00658333,9.35516667 7.05741667,9.47433333 7.15658333,9.56183333 C7.25491667,9.6485 7.37075,9.691 7.50241667,9.691 C7.63325,9.691 7.74908333,9.646 7.84491667,9.55933333 C7.94325,9.4735 7.99241667,9.35433333 7.99241667,9.201 L8.18908333,5.35683333 C8.18908333,5.1685 8.12241667,5.00683333 7.98658333,4.87516667 C7.85075,4.74183333 7.68825,4.67433333 7.49658333,4.67433333 Z" id="path-1"></path>
    </defs>
    <g id="RBS" stroke="none" stroke-width="1" fill="none" fill-rule="evenodd">
        <g id="RBS_Notice" transform="translate(-520.000000, -328.000000)">
            <g id="Group-5" transform="translate(520.000000, 325.000000)">
                <g id="Icons-/-50px-/-Attention-Copy-5" transform="translate(0.000000, 3.000000)">
                    <mask id="mask-2" fill="white">
                        <use xlink:href="#path-1"></use>
                    </mask>
                    <g id="Combined-Shape"></g>
                    <g id="Group" mask="url(#mask-2)" fill="#3DCD58">
                        <g id="Colors/Text-Gray-#333333">
                            <rect id="color" x="0" y="0" width="15" height="15"></rect>
                        </g>
                    </g>
                </g>
            </g>
        </g>
    </g>
</svg>