<?xml version="1.0" encoding="UTF-8"?>
<svg width="14px" height="15px" viewBox="0 0 14 15" version="1.1" xmlns="http://www.w3.org/2000/svg" xmlns:xlink="http://www.w3.org/1999/xlink">
    <title>Buttons / XS / Close Inverted / Default Copy</title>
    <defs>
        <path d="M4.62598846,3.89461761 L9.99930304,9.26830304 L15.3740115,3.89461761 C15.6580292,3.61059995 16.1024705,3.58478016 16.4156561,3.81715825 L16.5053824,3.89461761 C16.8178018,4.20703705 16.8178018,4.71356903 16.5053824,5.02598846 L16.5053824,5.02598846 L11.131303,10.399303 L16.5053824,15.7740115 C16.8178018,16.086431 16.8178018,16.592963 16.5053824,16.9053824 C16.192963,17.2178018 15.686431,17.2178018 15.3740115,16.9053824 L9.99930304,11.531303 L4.62598846,16.9053824 C4.3419708,17.1894001 3.89752953,17.2152198 3.58434394,16.9828418 L3.49461761,16.9053824 C3.18219818,16.592963 3.18219818,16.086431 3.49461761,15.7740115 L3.49461761,15.7740115 L8.86830304,10.399303 L3.49461761,5.02598846 C3.18219818,4.71356903 3.18219818,4.20703705 3.49461761,3.89461761 C3.80703705,3.58219818 4.31356903,3.58219818 4.62598846,3.89461761 Z" id="path-1"></path>
    </defs>
    <g id="Spotlight-on-SRP" stroke="none" stroke-width="1" fill="none" fill-rule="evenodd">
        <g id="ð—«-Icon" transform="translate(-3.000000, -3.000000)">
            <mask id="mask-2" fill="white">
                <use xlink:href="#path-1"></use>
            </mask>
            <g id="close-icon"></g>
            <g id="Group" mask="url(#mask-2)" fill="#FFFFFF">
                <g id="ðŸŽ¨-close-icon-color">
                    <rect id="color" x="0" y="0" width="20" height="20"></rect>
                </g>
            </g>
        </g>
    </g>
</svg>