<?xml version="1.0" encoding="UTF-8"?>
<svg width="280px" height="159px" viewBox="0 0 280 159" version="1.1" xmlns="http://www.w3.org/2000/svg" xmlns:xlink="http://www.w3.org/1999/xlink">
    <title>Illustration S&amp;F</title>
    <g id="Illustration-S&amp;F" stroke="none" stroke-width="1" fill="none" fill-rule="evenodd" opacity="0.5">
        <path d="M66.9830827,19 C65.1641308,19 63.6895506,20.476 63.6895506,22.2967033 L63.6895506,30.8681319 C63.6895506,31.2322198 63.9845194,31.5274725 64.348257,31.5274725 C64.7119947,31.5274725 65.0069635,31.2322198 65.0069635,30.8681319 L65.0069635,22.2967033 C65.0069635,21.2043077 65.8917379,20.3186813 66.9830827,20.3186813 L210.581084,20.3186813 C211.671901,20.3186813 212.557203,21.2043077 212.557203,22.2967033 L212.557203,105.373626 L204.652726,105.373626 C204.28912,105.373626 203.994019,105.668879 203.994019,106.032967 C203.994019,106.397055 204.28912,106.692308 204.652726,106.692308 L212.557203,106.692308 L212.557203,117.241758 C212.557203,118.334154 211.671901,119.21978 210.581084,119.21978 L149.980092,119.21978 L148.66268,119.21978 L131.536312,119.21978 L130.2189,119.21978 L66.9830827,119.21978 C65.8917379,119.21978 65.0069635,118.334154 65.0069635,117.241758 L65.0069635,106.692308 L198.065662,106.692308 C198.429267,106.692308 198.724368,106.397055 198.724368,106.032967 C198.724368,105.668879 198.429267,105.373626 198.065662,105.373626 L65.0069635,105.373626 L65.0069635,69.7692308 L65.0069635,37.4615385 C65.0069635,37.0974505 64.7119947,36.8021978 64.348257,36.8021978 C63.9845194,36.8021978 63.6895506,37.0974505 63.6895506,37.4615385 L63.6895506,69.7692308 L63.6895506,117.241758 C63.6895506,119.062462 65.1641308,120.538462 66.9830827,120.538462 L130.2189,120.538462 L130.2189,131.087912 L110.457707,131.087912 C106.455934,131.087912 103.211936,134.335033 103.211936,138.340659 L103.211936,139 L103.870643,139 L112.433826,139 C112.797564,139 113.092533,138.704615 113.092533,138.340659 C113.092533,137.976703 112.797564,137.681319 112.433826,137.681319 L104.565578,137.681319 C104.893218,134.714286 107.406183,132.406593 110.457707,132.406593 L130.2189,132.406593 L131.536312,132.406593 L148.66268,132.406593 L149.980092,132.406593 L169.741285,132.406593 C172.792413,132.406593 175.306037,134.714286 175.634073,137.681319 L140.099496,137.681319 L119.02089,137.681319 C118.657153,137.681319 118.362184,137.976703 118.362184,138.340659 C118.362184,138.704615 118.657153,139 119.02089,139 L140.099496,139 L176.328349,139 L176.987056,139 L176.987056,138.340659 C176.987056,134.335033 173.743585,131.087912 169.741285,131.087912 L149.980092,131.087912 L149.980092,120.538462 L210.581084,120.538462 C212.400431,120.538462 213.874616,119.062462 213.874616,117.241758 L213.874616,22.2967033 C213.874616,20.476 212.400431,19 210.581084,19 L66.9830827,19 Z M148.66268,131.087912 L131.536312,131.087912 L131.536312,120.538462 L148.66268,120.538462 L148.66268,131.087912 Z M81.4746241,32.1868132 C80.3832793,32.1868132 79.4985048,33.0724396 79.4985048,34.1648352 L79.4985048,92.1868132 C79.4985048,93.2792088 80.3832793,94.1648352 81.4746241,94.1648352 L159.201982,94.1648352 C159.565588,94.1648352 159.860689,93.8695824 159.860689,93.5054945 C159.860689,93.1414066 159.565588,92.8461538 159.201982,92.8461538 L81.4746241,92.8461538 C81.1108864,92.8461538 80.8159177,92.5509011 80.8159177,92.1868132 L80.8159177,42.0769231 L195.430836,42.0769231 L195.430836,61.8571429 C195.430836,62.2212308 195.725936,62.5164835 196.089542,62.5164835 C196.453148,62.5164835 196.748249,62.2212308 196.748249,61.8571429 L196.748249,34.1648352 C196.748249,33.0724396 195.862947,32.1868132 194.772129,32.1868132 L81.4746241,32.1868132 Z M195.430836,40.7582418 L80.8159177,40.7582418 L80.8159177,34.1648352 C80.8159177,33.8007473 81.1108864,33.5054945 81.4746241,33.5054945 L194.772129,33.5054945 C195.135735,33.5054945 195.430836,33.8007473 195.430836,34.1648352 L195.430836,40.7582418 Z M155.90845,49.989011 C156.272056,49.989011 156.567157,49.6937582 156.567157,49.3296703 C156.567157,48.9655824 156.272056,48.6703297 155.90845,48.6703297 L88.7203948,48.6703297 C88.3566571,48.6703297 88.0616884,48.9655824 88.0616884,49.3296703 C88.0616884,49.6937582 88.3566571,49.989011 88.7203948,49.989011 L155.90845,49.989011 Z M124.949248,53.2857143 C124.949248,53.6498022 124.65428,53.9450549 124.290542,53.9450549 L88.7203948,53.9450549 C88.3566571,53.9450549 88.0616884,53.6498022 88.0616884,53.2857143 C88.0616884,52.9216264 88.3566571,52.6263736 88.7203948,52.6263736 L124.290542,52.6263736 C124.65428,52.6263736 124.949248,52.9216264 124.949248,53.2857143 Z M95.3074591,60.5384615 C95.6711968,60.5384615 95.9661655,60.2432088 95.9661655,59.8791209 C95.9661655,59.515033 95.6711968,59.2197802 95.3074591,59.2197802 L88.7203948,59.2197802 C88.3566571,59.2197802 88.0616884,59.515033 88.0616884,59.8791209 C88.0616884,60.2432088 88.3566571,60.5384615 88.7203948,60.5384615 L95.3074591,60.5384615 Z M105.188055,59.8791209 C105.188055,60.2432088 104.893087,60.5384615 104.529349,60.5384615 L97.9422848,60.5384615 C97.5785471,60.5384615 97.2835783,60.2432088 97.2835783,59.8791209 C97.2835783,59.515033 97.5785471,59.2197802 97.9422848,59.2197802 L104.529349,59.2197802 C104.893087,59.2197802 105.188055,59.515033 105.188055,59.8791209 Z M86.0855691,37.1318681 C86.0855691,37.6780659 85.6431819,38.1208791 85.0975095,38.1208791 C84.5518371,38.1208791 84.1094498,37.6780659 84.1094498,37.1318681 C84.1094498,36.5856703 84.5518371,36.1428571 85.0975095,36.1428571 C85.6431819,36.1428571 86.0855691,36.5856703 86.0855691,37.1318681 Z M88.3910416,38.1208791 C88.936714,38.1208791 89.3791012,37.6780659 89.3791012,37.1318681 C89.3791012,36.5856703 88.936714,36.1428571 88.3910416,36.1428571 C87.8453692,36.1428571 87.402982,36.5856703 87.402982,37.1318681 C87.402982,37.6780659 87.8453692,38.1208791 88.3910416,38.1208791 Z M92.6726334,37.1318681 C92.6726334,37.6780659 92.2302461,38.1208791 91.6845737,38.1208791 C91.1389013,38.1208791 90.6965141,37.6780659 90.6965141,37.1318681 C90.6965141,36.5856703 91.1389013,36.1428571 91.6845737,36.1428571 C92.2302461,36.1428571 92.6726334,36.5856703 92.6726334,37.1318681 Z M173.294348,61.9511648 C173.130988,61.8534505 172.934694,61.8306374 172.754208,61.8886593 C170.31436,62.6726154 168.070806,63.970989 166.176366,65.6963516 C166.035403,65.8238681 165.957675,66.0055824 165.96031,66.1952088 L166.040673,70.9218901 C165.713954,71.4142857 165.418854,71.9260659 165.154054,72.4543297 L161.022647,74.7504176 C160.856653,74.8425934 160.738086,75.0018901 160.698563,75.1875604 C160.157107,77.693978 160.158424,80.2875604 160.703833,82.7931868 C160.744673,82.9784615 160.861923,83.1373626 161.027917,83.2294066 L165.156688,85.5239121 C165.420171,86.0524396 165.715272,86.5647473 166.040673,87.0576703 L165.96031,91.7876484 C165.957675,91.9775385 166.03672,92.1596484 166.176366,92.2871648 C168.074758,94.0097582 170.319629,95.304967 172.759478,96.0852308 C172.939964,96.142989 173.136258,96.1201758 173.299617,96.0225934 L177.349344,93.5902857 C177.938228,93.6265495 178.528429,93.6269451 179.117312,93.5916044 L183.169674,96.0256264 C183.333034,96.1233407 183.529328,96.1461538 183.709814,96.088 C186.149662,95.3041758 188.393216,94.0058022 190.287656,92.2804396 C190.428619,92.1529231 190.506347,91.9710769 190.503712,91.7815824 L190.42335,87.0547692 C190.750068,86.5623736 191.045168,86.0507253 191.309968,85.5224615 L195.441375,83.2263736 C195.607369,83.1341978 195.725936,82.9749011 195.765459,82.7892308 C196.306915,80.2828132 196.305598,77.6892308 195.760189,75.1836044 C195.719349,74.9983297 195.602099,74.8394286 195.436105,74.7473846 L191.307334,72.4528791 C191.043851,71.9242198 190.748751,71.412044 190.42335,70.9191209 L190.503712,66.1891429 C190.506347,65.9991209 190.427302,65.8171429 190.287656,65.6894945 C188.389264,63.967033 186.144393,62.6718242 183.704544,61.8914286 C183.524058,61.8338022 183.327764,61.8566154 183.164405,61.9541978 L179.114678,64.3865055 C178.525794,64.3502418 177.935593,64.3497143 177.34671,64.3850549 L173.294348,61.9511648 Z M167.36072,71.1069011 L167.282993,66.4747692 C168.916585,65.0395165 170.817612,63.9394725 172.87541,63.2374066 L176.846093,65.6221099 C176.962025,65.6922637 177.097719,65.7244396 177.233412,65.7142857 C177.897388,65.6648352 178.562682,65.6653626 179.226658,65.7158681 C179.362351,65.7262857 179.498045,65.6941099 179.615295,65.6238242 L183.584659,63.2401758 C185.642458,63.9392088 187.544802,65.0363516 189.181029,66.4692308 L189.103302,71.1036044 C189.100667,71.2396923 189.140189,71.3732747 189.217917,71.4857582 C189.592062,72.0361758 189.92405,72.6138901 190.212564,73.2142857 C190.271847,73.3373187 190.366701,73.438989 190.486585,73.5053187 L194.533678,75.7538022 C194.957885,77.8880879 194.959202,80.0852747 194.53763,82.2200879 L190.48922,84.4697582 C190.370653,84.5358242 190.274482,84.6372308 190.215198,84.7598681 C189.926685,85.3597363 189.593379,85.9369231 189.217917,86.4866813 C189.141507,86.5994286 189.100667,86.7332747 189.103302,86.8698901 L189.181029,91.502022 C187.547437,92.9372747 185.646411,94.0371868 183.588612,94.7393846 L179.617929,92.3545495 C179.501997,92.2845275 179.366304,92.2523516 179.23061,92.2625055 C178.566634,92.3118242 177.90134,92.3112967 177.237364,92.2609231 C177.101671,92.2505055 176.965977,92.2826813 176.848728,92.352967 L172.879363,94.7366154 C170.821564,94.0374505 168.91922,92.9403077 167.282993,91.5075604 L167.36072,86.8731868 C167.363355,86.7370989 167.322515,86.6035165 167.246105,86.4909011 C166.87196,85.9406154 166.539972,85.3627692 166.251459,84.7625055 C166.192175,84.6394725 166.096004,84.5378022 165.977437,84.4714725 L161.930344,82.2228571 C161.506137,80.0885714 161.50482,77.8915165 161.926392,75.7565714 L165.974802,73.507033 C166.093369,73.4408352 166.18954,73.3395604 166.247506,73.2169231 C166.537337,72.6170549 166.870643,72.0398681 167.246105,71.489978 C167.322515,71.3772308 167.363355,71.2433846 167.36072,71.1069011 Z M171.07319,78.5363516 C170.96121,80.2917802 171.489492,82.0283516 172.561866,83.4224615 C173.632923,84.8167033 175.174296,85.7735385 176.898789,86.1149451 C178.621965,86.4563516 180.411012,86.1588571 181.932624,85.2781099 C183.454236,84.3972308 184.60302,82.9930989 185.166872,81.3270769 C185.730725,79.6610549 185.670124,77.8465495 184.996926,76.2216703 C184.323728,74.5969231 183.084043,73.2723077 181.508417,72.4945495 C179.931474,71.7169231 178.126618,71.5391648 176.428473,71.9945055 C176.078041,72.0886593 175.71707,71.8799121 175.622216,71.5282198 C175.52868,71.1765275 175.736831,70.8149451 176.08858,70.7206593 C178.093683,70.1826374 180.227892,70.3927033 182.090713,71.3118242 C183.953535,72.2308132 185.418498,73.7963516 186.214216,75.7166154 C187.009933,77.6368791 187.081073,79.7811868 186.414462,81.7501099 C185.749169,83.7191648 184.389599,85.3785934 182.592648,86.4195604 C180.794379,87.4605275 178.679931,87.811956 176.643211,87.4085714 C174.605173,87.0050549 172.783191,85.8742857 171.517158,84.2265934 C170.251124,82.5789011 169.625353,80.5266374 169.758412,78.4520879 C169.89147,76.3774066 170.772819,74.4218022 172.2391,72.9493626 C172.495995,72.6914286 172.913615,72.6907692 173.170511,72.9477802 C173.428724,73.2047912 173.428724,73.6222857 173.171828,73.8802198 C171.932143,75.1261099 171.186487,76.7809231 171.07319,78.5363516 Z M137.085651,62.6105055 C136.92295,62.5127912 136.726129,62.489978 136.54538,62.548 C134.932998,63.0662418 133.45025,63.9245714 132.197259,65.0650989 C132.057218,65.1926154 131.9787,65.3743297 131.981862,65.563956 L132.032187,68.5559121 C131.844587,68.844044 131.672401,69.1419341 131.51642,69.4483956 L128.900696,70.901978 C128.734834,70.9941538 128.616662,71.1534505 128.576613,71.338989 C128.218672,72.9959121 128.219857,74.7103297 128.58017,76.3667253 C128.620483,76.552 128.738523,76.7109011 128.904122,76.8029451 L131.517869,78.2553407 C131.673323,78.5620659 131.845114,78.8602198 132.032187,79.1486154 L131.981862,82.1429451 C131.9787,82.3328352 132.057481,82.5149451 132.198049,82.6424615 C133.452621,83.7811429 134.936555,84.6373626 136.549727,85.1532308 C136.730213,85.2108571 136.926771,85.188044 137.089076,85.0904615 L139.65263,83.5509011 C139.995684,83.5693626 140.339529,83.5697582 140.682715,83.5516923 L143.248113,85.0924396 C143.410813,85.1901538 143.607766,85.212967 143.788384,85.1548132 C145.400765,84.6367033 146.884172,83.7783736 148.137032,82.6378462 C148.276678,82.5103297 148.355722,82.3284835 148.35177,82.138989 L148.301708,79.147033 C148.488781,78.8589011 148.661362,78.5608791 148.816817,78.2545495 L151.433199,76.800967 C151.599193,76.7087912 151.71776,76.5494945 151.757282,76.3638242 C152.115619,74.707033 152.114301,72.9924835 151.75333,71.3362198 C151.713808,71.1509451 151.595241,70.9919121 151.429247,70.9 L148.815499,69.4476044 C148.660045,69.1408791 148.488781,68.8427253 148.301708,68.5543297 L148.35177,65.56 C148.355722,65.3701099 148.276678,65.188 148.135714,65.0604835 C146.881537,63.9218022 145.396813,63.0655824 143.784036,62.5497143 C143.603682,62.4920879 143.407124,62.5149011 143.244687,62.6124835 L140.681266,64.152044 C140.33808,64.1334505 139.994235,64.1331868 139.65118,64.1512527 L137.085651,62.6105055 Z M133.352893,68.7394725 L133.304149,65.8454945 C134.295238,64.9928352 135.436118,64.3323077 136.668558,63.8978022 L139.149114,65.3876484 C139.265837,65.4576703 139.401267,65.4898462 139.536961,65.4796923 C139.955371,65.4485714 140.375494,65.4488352 140.793904,65.4807473 C140.929861,65.491033 141.065818,65.4588571 141.182805,65.3887033 L143.662307,63.8995165 C144.894879,64.3321758 146.037076,64.990989 147.029088,65.8420659 L146.980343,68.7373626 C146.979026,68.8734505 147.018548,69.007033 147.094958,69.1195165 C147.330775,69.4665934 147.541561,69.8310769 147.722047,70.2095385 C147.78133,70.3327033 147.877502,70.4343736 147.997386,70.5007033 L150.525501,71.9054945 C150.766588,73.1908132 150.767905,74.510022 150.528136,75.7957363 L147.998703,77.2011868 C147.880136,77.2672527 147.783965,77.3686593 147.724682,77.4912967 C147.542879,77.8694945 147.332093,78.2335824 147.096276,78.5802637 C147.018548,78.693011 146.979026,78.8268571 146.980343,78.9634725 L147.029088,81.8574505 C146.038393,82.7101099 144.897514,83.3705055 143.665206,83.8051429 L141.184649,82.3152967 C141.067926,82.2452747 140.932496,82.2130989 140.796803,82.2231209 C140.378392,82.2543736 139.958269,82.253978 139.539991,82.2221978 C139.403902,82.2117802 139.268077,82.243956 139.151091,82.3142418 L136.671456,83.8034286 C135.438358,83.3707692 134.296424,82.711956 133.304149,81.8608791 L133.352893,78.9655824 C133.355133,78.8294945 133.315347,78.6959121 133.238673,78.5834286 C133.002593,78.2362198 132.792729,77.8718681 132.61119,77.4932747 C132.552038,77.3702418 132.456262,77.2685714 132.337036,77.2022418 L129.808789,75.7974505 C129.566649,74.5121319 129.565595,73.1927912 129.805891,71.9072088 L132.335192,70.5017582 C132.454154,70.4356923 132.549666,70.3342857 132.608818,70.2116484 C132.791016,69.8333187 133.001407,69.4693626 133.238146,69.1225495 C133.315083,69.0098022 133.355133,68.875956 133.352893,68.7394725 Z M141.28688,78.2495385 C142.387183,78.0287912 143.369842,77.4153407 144.051735,76.5232527 C144.734154,75.6312967 145.068777,74.5214945 144.993685,73.4007473 C144.91991,72.28 144.440371,71.2243956 143.646498,70.4308132 C142.852362,69.6372308 141.797114,69.1596044 140.677182,69.0868132 C139.557381,69.014022 138.449305,69.3512088 137.559261,70.0353407 C136.669216,70.7194725 136.057937,71.7041319 135.839246,72.8058901 C135.620556,73.9076484 135.809341,75.0514725 136.370427,76.0242637 C136.552362,76.3395604 136.444466,76.7428132 136.129341,76.9249231 C135.814347,77.1069011 135.411482,76.9989011 135.229548,76.6836044 C134.508659,75.4337582 134.266124,73.9643516 134.547128,72.5488791 C134.828132,71.1335385 135.613442,69.8685275 136.756824,68.9894945 C137.900207,68.1104615 139.323803,67.6774066 140.76255,67.7709011 C142.201297,67.8643956 143.557046,68.477978 144.577382,69.4975824 C145.59706,70.5171868 146.213609,71.8731868 146.308463,73.3130549 C146.404634,74.7530549 145.97384,76.1786813 145.09776,77.3247473 C144.221681,78.4706813 142.959336,79.258989 141.545752,79.5425055 C140.132168,79.8261538 138.66378,79.5858901 137.41395,78.8664176 C137.098693,78.6848352 136.990006,78.2818462 137.171414,77.9661538 C137.35269,77.6504615 137.755423,77.5418022 138.070812,77.7232527 C139.04359,78.2832967 140.186577,78.4704176 141.28688,78.2495385 Z M64.348257,32.8461538 C63.9845194,32.8461538 63.6895506,33.1414066 63.6895506,33.5054945 L63.6895506,34.8241758 C63.6895506,35.1882637 63.9845194,35.4835165 64.348257,35.4835165 C64.7119947,35.4835165 65.0069635,35.1882637 65.0069635,34.8241758 L65.0069635,33.5054945 C65.0069635,33.1414066 64.7119947,32.8461538 64.348257,32.8461538 Z M195.430836,64.4945055 C195.430836,64.1304176 195.725936,63.8351648 196.089542,63.8351648 C196.453148,63.8351648 196.748249,64.1304176 196.748249,64.4945055 L196.748249,65.8131868 C196.748249,66.1772747 196.453148,66.4725275 196.089542,66.4725275 C195.725936,66.4725275 195.430836,66.1772747 195.430836,65.8131868 L195.430836,64.4945055 Z M202.676607,106.032967 C202.676607,105.668879 202.381506,105.373626 202.0179,105.373626 L200.700487,105.373626 C200.336881,105.373626 200.041781,105.668879 200.041781,106.032967 C200.041781,106.397055 200.336881,106.692308 200.700487,106.692308 L202.0179,106.692308 C202.381506,106.692308 202.676607,106.397055 202.676607,106.032967 Z M141.285036,112.626374 C141.285036,113.354681 140.69523,113.945055 139.967623,113.945055 C139.240016,113.945055 138.65021,113.354681 138.65021,112.626374 C138.65021,111.898066 139.240016,111.307692 139.967623,111.307692 C140.69523,111.307692 141.285036,111.898066 141.285036,112.626374 Z M117.044771,138.340659 C117.044771,137.976703 116.749802,137.681319 116.386065,137.681319 L115.068652,137.681319 C114.704914,137.681319 114.409945,137.976703 114.409945,138.340659 C114.409945,138.704615 114.704914,139 115.068652,139 L116.386065,139 C116.749802,139 117.044771,138.704615 117.044771,138.340659 Z M55.2735095,48.3471648 C55.5438427,48.1036044 55.5658435,47.6867692 55.3223856,47.416044 C55.0790594,47.1454505 54.6626252,47.1234286 54.3921603,47.3671209 L47.8050961,53.3011868 C47.6663725,53.4261978 47.5870643,53.6043516 47.5870643,53.7912088 C47.5870643,53.9780659 47.6663725,54.1562198 47.8050961,54.2812308 L54.3921603,60.2152967 C54.6626252,60.458989 55.0790594,60.436967 55.3223856,60.1663736 C55.5658435,59.8956484 55.5438427,59.4788132 55.2735095,59.2352527 L49.2304051,53.7912088 L55.2735095,48.3471648 Z M48.7353213,47.416044 C48.9787792,47.6867692 48.9567784,48.1036044 48.6864453,48.3471648 L42.6433408,53.7912088 L48.6864453,59.2352527 C48.9567784,59.4788132 48.9787792,59.8956484 48.7353213,60.1663736 C48.4919951,60.436967 48.0755609,60.458989 47.8050961,60.2152967 L41.2180318,54.2812308 C41.0793083,54.1562198 41,53.9780659 41,53.7912088 C41,53.6043516 41.0793083,53.4261978 41.2180318,53.3011868 L47.8050961,47.3671209 C48.0755609,47.1234286 48.4919951,47.1454505 48.7353213,47.416044 Z M224.390205,130.537363 C223.589218,130.537363 222.939734,129.887385 222.939734,129.085626 C222.939734,128.283868 223.589218,127.63389 224.390205,127.63389 C225.191192,127.63389 225.840677,128.283868 225.840677,129.085626 C225.840677,129.887385 225.191192,130.537363 224.390205,130.537363 Z M224.390205,131.698725 C222.947638,131.698725 221.779093,130.528791 221.779093,129.085626 C221.779093,127.642462 222.947638,126.472527 224.390205,126.472527 C225.831455,126.472527 227,127.642462 227,129.085626 C227,130.528791 225.831455,131.698725 224.390205,131.698725 Z M218.485561,128.450549 C218.849167,128.450549 219.144267,128.745802 219.144267,129.10989 C219.144267,129.473978 218.849167,129.769231 218.485561,129.769231 L217.168148,129.769231 C216.804542,129.769231 216.509441,129.473978 216.509441,129.10989 C216.509441,128.745802 216.804542,128.450549 217.168148,128.450549 L218.485561,128.450549 Z M197.406955,122.516484 C197.406955,122.152396 197.111855,121.857143 196.748249,121.857143 C196.384643,121.857143 196.089542,122.152396 196.089542,122.516484 L196.089542,123.835165 C196.089542,127.112484 198.744129,129.769231 202.0179,129.769231 L213.874616,129.769231 C214.238222,129.769231 214.533322,129.473978 214.533322,129.10989 C214.533322,128.745802 214.238222,128.450549 213.874616,128.450549 L202.0179,128.450549 C199.471341,128.450549 197.406955,126.384176 197.406955,123.835165 L197.406955,122.516484 Z" id="Shape" fill="#3DCD58"></path>
    </g>
</svg>